<svg class="icon" style="width: 1.0380859375em;height: 1em;vertical-align: middle;fill: currentColor;overflow: hidden;" viewBox="0 0 1063 1024" version="1.1" xmlns="http://www.w3.org/2000/svg" p-id="9063"><path d="M811.90653747 328.88554434h-132.32122311V90.125H202.06422567v238.76054434H90.125v604.98945566h721.78153748l154.64436383-53.05789875V381.29639561zM381.29639561 166.47661069h218.37854689v30.41123428H381.29639561z m-2e-8 94.79246484h218.37854691v30.4112351H381.29639561zM264.50431378 166.47661069h59.20485068v30.41123428H264.50431378z m0 94.79246484h59.20485068v30.4112351H264.50431378zM769.52492307 893.1110043H130.8889957V369.64954003H769.52492307zM449.55991189 547.58761499m-106.11579748 0a106.11579748 106.11579748 0 1 0 212.23159497 0 106.11579748 106.11579748 0 1 0-212.23159497 0ZM541.11713931 657.90922196a133.29179434 133.29179434 0 0 1-182.79093109 0 120.99789129 120.99789129 0 0 0-57.26370822 102.55703549v75.7045632h297.31834753v-75.7045632a120.99789129 120.99789129 0 0 0-57.26370822-102.55703549z" p-id="9064"></path></svg>