<svg xmlns="http://www.w3.org/2000/svg" viewBox="0 0 1024 1024"><path fill="currentColor" d="M924.8 625.6a32 32 0 0 1-22.4 38.4l-89.6 22.4a288 288 0 0 1-25.6 60.8l48 80a32 32 0 0 1-9.6 44.8l-64 64a32 32 0 0 1-44.8-9.6l-48-80a288 288 0 0 1-60.8 25.6l-22.4 89.6a32 32 0 0 1-38.4 22.4l-89.6-22.4a32 32 0 0 1-22.4-38.4l22.4-89.6a288 288 0 0 1-60.8-25.6l-80 48a32 32 0 0 1-44.8-9.6l-64-64a32 32 0 0 1 9.6-44.8l80-48a288 288 0 0 1-25.6-60.8l-89.6-22.4a32 32 0 0 1-22.4-38.4l22.4-89.6a32 32 0 0 1 38.4-22.4l89.6 22.4a288 288 0 0 1 60.8-25.6l-48-80a32 32 0 0 1 9.6-44.8l64-64a32 32 0 0 1 44.8 9.6l48 80a288 288 0 0 1 60.8 25.6l89.6-22.4a32 32 0 0 1 38.4 22.4l22.4 89.6zM512 704a192 192 0 1 0 0-384 192 192 0 0 0 0 384"/></svg>
